<?xml version="1.0" encoding="utf-8"?>
<!-- Generator: Adobe Illustrator 19.2.1, SVG Export Plug-In . SVG Version: 6.00 Build 0)  -->
<svg version="1.1" id="Layer_1" xmlns="http://www.w3.org/2000/svg" xmlns:xlink="http://www.w3.org/1999/xlink" x="0px" y="0px"
	 viewBox="0 0 20 20" style="enable-background:new 0 0 20 20;" xml:space="preserve">
<style type="text/css">
	.st0{fill:#C41C22;}
	.st1{fill:#FCB12A;}
</style>
<rect x="7.4" y="4.8" class="st0" width="4.7" height="14.2"/>
<path class="st1" d="M19.7,17.9l-8.5-17C10.9,0.3,10.4,0,10,0C9.6,0,9.1,0.3,8.8,0.9l-8.5,17C-0.4,19,0.2,20,1.5,20h17
	C19.8,20,20.4,19,19.7,17.9 M10,17.9c-0.8,0-1.5-0.7-1.5-1.5c0-0.8,0.7-1.5,1.5-1.5s1.5,0.7,1.5,1.5C11.5,17.3,10.8,17.9,10,17.9
	 M11,13.2H9L8.6,7.4c0-0.8,0.6-1.4,1.4-1.4c0.8,0,1.4,0.6,1.4,1.4L11,13.2z"/>
</svg>
