<?xml version="1.0" encoding="utf-8"?>
<!-- Generator: Adobe Illustrator 19.2.1, SVG Export Plug-In . SVG Version: 6.00 Build 0)  -->
<svg version="1.1" id="Layer_1" xmlns="http://www.w3.org/2000/svg" xmlns:xlink="http://www.w3.org/1999/xlink" x="0px" y="0px"
	 viewBox="0 0 26 20" style="enable-background:new 0 0 26 20;" xml:space="preserve">
<style type="text/css">
	.st0{fill:#A7AAAC;}
	.st1{fill:#0D8140;}
</style>
<path class="st0" d="M13.9,17.8c-1.2,0.6-2.5,0.9-3.9,0.9c-2.3,0-4.5-0.9-6.2-2.6c-1.3-1.3-2.2-3-2.4-4.8c0.1-0.6,0.4-1.2,0.9-1.6
	c0.2-0.2,0-0.8-0.9-1.1c0.2-1.1,0.5-2.2,1.1-3.1c1.1,0.2,2.3-1,2.6-1.9C5.4,3.4,5.2,3.2,4.8,3C6.3,1.9,8.1,1.3,10,1.3
	c1.3,0,2.6,0.3,3.8,0.9c0,0.7-0.9,0.6-1.4,0.1c-0.2,0-0.5,0.1-0.8,0.2c-0.9,0.4-2,1.3-1.6,1.8c0.7-0.5,1.4-0.3,0.9,0.6
	c-0.7,1.2-1.4-0.4-2.2,0c0.4,0.3-1,0.8-1.4,0.8C6.5,5.4,8,6.2,7.4,6.4C5.7,6.7,8.2,7.7,8.3,6.3c1.6-0.9,1.6,1.9,3.3,1.5
	c-0.5-0.7,0.1-1.4,0.9-1.5c1.5,0.4-1,1.2,0.1,1.4C12.5,8.2,11,8.4,10.5,9c-1.7,0-2.4-2.5-4.2-1.4c-1.3,0.3-2,2-1.6,3.2
	c0.6,1.6,1.8,1.8,3.3,1.8c1.3,0.7,1,3.2,1.5,4.6c0.8,0.7,3,2.4,3,0.3c-0.2-1.5,1.6-4.3,2.3-5.6c1.1-1.8-1.1,0.2-1.6-0.7
	c-0.3-1.9,1.6-0.2,2.5-0.8c0.8,0.5,2.1-0.4,2.3,1c0.2,0.9,0.4,0.7,0.7,0.3c-0.1,0.7-0.4,1.4-0.7,2.1c0.1,0,0.2,0.1,0.3,0.1
	c0.3,0.2,0.6,0.3,0.8,0.5c0.7-1.4,1.1-2.9,1.1-4.5c0-2.7-1-5.2-2.9-7.1C15.2,1,12.7,0,10,0C7.3,0,4.8,1,2.9,2.9C1,4.8,0,7.3,0,10
	c0,2.7,1,5.2,2.9,7.1C4.8,19,7.3,20,10,20c2,0,3.9-0.6,5.5-1.6C14.8,18.1,14.2,18,13.9,17.8z"/>
<g>
	<path class="st1" d="M25.8,10.2l-1-0.7c-0.5-0.3-1.3,0.1-1.9,0.9c0,0-2.7,3.6-3.7,6.1c-1.2-1.1-1.6-1.3-2.2-1.7
		c-0.6-0.3-1.5-0.2-1.8,0.3l-0.4,1.1c0,0.7,0.4,0.4,1.2,0.8c0,0,1.2,0.5,4.2,3c2-5.2,4.2-7.6,4.2-7.6C25,11.6,26.5,11,25.8,10.2z"/>
</g>
</svg>
