<?xml version="1.0" encoding="utf-8"?>
<!-- Generator: Adobe Illustrator 22.0.1, SVG Export Plug-In . SVG Version: 6.00 Build 0)  -->
<svg version="1.1" id="Layer_1" xmlns="http://www.w3.org/2000/svg" xmlns:xlink="http://www.w3.org/1999/xlink" x="0px" y="0px"
	 viewBox="0 0 21.8 19.5" style="enable-background:new 0 0 21.8 19.5;" xml:space="preserve">
<style type="text/css">
	.st0{fill:#A7AAAC;}
	.st1{fill:#A90101;}
</style>
<path class="st0" d="M12,17.2l2.2-2.2L12,12.8l-0.3-0.3v-0.2c-0.2-0.1-0.4-0.1-0.5-0.1c-0.4-0.1-0.5-1.3-0.5-1.3s0.5-0.5,1-1.3l0,0
	l0,0c0.3-0.5,0.5-1,0.6-1.7c0.8,0,1.2-1.8,0.5-2.5c0-0.7,1-5.4-3.8-5.4S5.1,4.7,5.2,5.4C4.4,6,4.9,7.9,5.6,7.9c0.3,1.7,1.6,3,1.6,3
	s0,1.2-0.5,1.3C5.3,12.4,0,14.8,0,17.4h9h2.9L12,17.2z"/>
<g>
	<g>
		<polygon class="st1" points="21.8,12.1 18.8,15 21.8,17.9 21.8,19.5 20.2,19.5 17.3,16.6 14.3,19.5 12.7,19.5 12.7,17.9 15.7,15 
			12.7,12.1 12.7,10.5 14.3,10.5 17.3,13.4 20.2,10.5 21.8,10.5 		"/>
	</g>
</g>
</svg>
