<?xml version="1.0" encoding="utf-8"?>
<!-- Generator: Adobe Illustrator 22.0.1, SVG Export Plug-In . SVG Version: 6.00 Build 0)  -->
<svg version="1.1" id="Layer_1" xmlns="http://www.w3.org/2000/svg" xmlns:xlink="http://www.w3.org/1999/xlink" x="0px" y="0px"
	 viewBox="0 0 22 19.6" style="enable-background:new 0 0 22 19.6;" xml:space="preserve">
<style type="text/css">
	.st0{fill:#0D8140;}
	.st1{fill:#A7AAAC;}
</style>
<g>
	<g>
		<path class="st0" d="M21.8,9.8l-1-0.7c-0.5-0.3-1.3,0.1-1.9,0.9c0,0-2.7,3.6-3.7,6.1C14,15,13.6,14.8,13,14.4
			c-0.6-0.3-1.5-0.2-1.8,0.3l-0.4,1.1c0,0.7,0.4,0.4,1.2,0.8c0,0,1.2,0.5,4.2,3c2-5.2,4.2-7.6,4.2-7.6C21,11.2,22.5,10.6,21.8,9.8z"
			/>
	</g>
</g>
<g>
	<path class="st1" d="M12,14.2c-0.1,0-0.3,0.1-0.4,0.1C11.7,14.3,11.8,14.3,12,14.2z"/>
	<path class="st1" d="M11.2,14.7c0.1-0.1,0.2-0.2,0.3-0.3C11.4,14.5,11.3,14.6,11.2,14.7z"/>
	<path class="st1" d="M13,14.4c-0.1-0.1-0.3-0.1-0.4-0.1C12.7,14.3,12.9,14.3,13,14.4z"/>
	<path class="st1" d="M11.1,17.3c-0.3-0.1-1.3-0.3-1.3-1.5v-0.2l0.1-0.2l0.4-1.1l0-0.1l0-0.1c0.4-0.6,1.1-1,1.9-1
		c0.4,0,0.8,0.1,1.2,0.3l0.1,0l0.1,0l0.3,0.2c0.3,0.2,0.6,0.4,1,0.7c0.1-0.2,0.2-0.4,0.3-0.6c-1.5-0.9-3.2-1.6-3.9-1.7
		c-0.4-0.1-0.5-1.3-0.5-1.3s1.3-1.3,1.6-3c0.8,0,1.2-1.8,0.5-2.5c0-0.7,1-5.4-3.8-5.4S5.1,4.7,5.2,5.4C4.4,6,4.9,7.9,5.6,7.9
		c0.3,1.7,1.6,3,1.6,3s0,1.2-0.5,1.3C5.3,12.4,0,14.8,0,17.4h9h2.3C11.2,17.3,11.1,17.3,11.1,17.3z"/>
	<path class="st1" d="M12,14.2c0.1,0,0.3,0,0.4,0c-0.1,0-0.1,0-0.2,0C12.2,14.2,12.1,14.2,12,14.2z"/>
</g>
</svg>
