<?xml version="1.0" encoding="utf-8"?>
<!-- Generator: Adobe Illustrator 19.2.1, SVG Export Plug-In . SVG Version: 6.00 Build 0)  -->
<svg version="1.1" id="Layer_1" xmlns="http://www.w3.org/2000/svg" xmlns:xlink="http://www.w3.org/1999/xlink" x="0px" y="0px"
	 viewBox="0 0 26.6 17.4" style="enable-background:new 0 0 26.6 17.4;" xml:space="preserve">
<style type="text/css">
	.st0{enable-background:new    ;}
	.st1{fill:#2D2B70;}
	.st2{fill:#B6B7B7;}
</style>
<g>
	<g class="st0">
		<path class="st1" d="M13,17.3v-6.7h1.2l2.4,4.4v-4.4h1.1v6.7h-1.2L14.1,13v4.3H13z"/>
		<path class="st1" d="M18.3,17.4l1.5-6.9h0.8l-1.5,6.9H18.3z"/>
		<path class="st1" d="M26.5,17.3h-1.3l-0.5-1.5h-2.4l-0.5,1.5h-1.3l2.3-6.7h1.3L26.5,17.3z M24.4,14.6l-0.8-2.5l-0.8,2.5H24.4z"/>
	</g>
	<path class="st2" d="M12.2,9.8h2l-4.5-9C9.4,0.2,9,0,8.7,0S8,0.2,7.7,0.7L0.3,15.3c-0.6,1-0.1,1.8,1.1,1.8h10.8V9.8z M8.7,5.1
		c0.7,0,1.2,0.6,1.2,1.2l-0.4,5H7.8l-0.4-5C7.4,5.6,8,5.1,8.7,5.1z M8.7,15.3c-0.7,0-1.3-0.6-1.3-1.3s0.6-1.3,1.3-1.3S10,13.3,10,14
		C10,14.8,9.4,15.3,8.7,15.3z"/>
</g>
</svg>
