<?xml version="1.0" encoding="utf-8"?>
<!-- Generator: Adobe Illustrator 19.2.1, SVG Export Plug-In . SVG Version: 6.00 Build 0)  -->
<svg version="1.1" id="Layer_1" xmlns="http://www.w3.org/2000/svg" xmlns:xlink="http://www.w3.org/1999/xlink" x="0px" y="0px"
	 viewBox="0 0 27.7 17.7" style="enable-background:new 0 0 27.7 17.7;" xml:space="preserve">
<style type="text/css">
	.st0{enable-background:new    ;}
	.st1{fill:#2D2B70;}
	.st2{fill:#A7AAAC;}
</style>
<g class="st0">
	<path class="st1" d="M14.1,17.5v-6.7h1.2l2.4,4.4v-4.4h1.1v6.7h-1.2l-2.4-4.3v4.3H14.1z"/>
	<path class="st1" d="M19.4,17.6l1.5-6.9h0.8l-1.5,6.9H19.4z"/>
	<path class="st1" d="M27.6,17.5h-1.3L25.8,16h-2.4l-0.5,1.5h-1.3l2.3-6.7h1.3L27.6,17.5z M25.4,14.9l-0.8-2.5l-0.8,2.5H25.4z"/>
</g>
<path class="st2" d="M12.9,14.7c-1.2,0.8-2.6,1.2-4,1.2c-2,0-3.9-0.8-5.3-2.2c-1.1-1.1-1.8-2.5-2.1-4c0.1-0.5,0.4-1,0.8-1.4
	c0.2-0.2,0-0.7-0.8-0.9c0.1-0.9,0.4-1.8,0.9-2.7c1,0.2,2-0.8,2.3-1.6C5,2.8,4.8,2.7,4.5,2.5C5.8,1.5,7.3,1,8.9,1
	c1.1,0,2.2,0.3,3.2,0.7c0,0.6-0.8,0.5-1.2,0.1c-0.2,0-0.4,0-0.7,0.2C9.4,2.3,8.5,3.1,8.9,3.5C9.4,3.1,10.1,3.2,9.6,4
	C9,5,8.4,3.6,7.8,4c0.3,0.3-0.9,0.7-1.2,0.7C5.9,4.6,7.2,5.3,6.7,5.5c-1.5,0.2,0.7,1,0.7-0.2c1.3-0.7,1.4,1.6,2.8,1.3
	C9.8,6,10.3,5.4,11,5.3c1.3,0.4-0.9,1,0.1,1.2C11,7,9.8,7.2,9.3,7.6c-1.5,0-2-2.2-3.6-1.2c-1,0.3-1.6,1.8-1.3,2.7
	c0.5,1.4,1.5,1.5,2.8,1.6c1.1,0.6,0.9,2.7,1.3,3.9c0.7,0.6,2.5,2,2.5,0.2c-0.2-1.2,1.3-3.6,2-4.7V10h0.1c0.8-1.4-1,0.2-1.4-0.5
	c-0.3-1.6,1.4-0.2,2.1-0.7c0.7,0.4,1.8-0.3,1.9,0.9c0,0.1,0,0.2,0.1,0.3h0.5l0,0l0,0h1.1c-0.1-0.5,0-1,0-1.5c0-2.3-0.9-4.4-2.5-6
	S11.2,0,8.9,0s-4.4,0.9-6,2.5s-2.5,3.7-2.5,6s0.9,4.4,2.5,6s3.7,2.5,6,2.5c1.4,0,2.8-0.4,4-1V14.7z"/>
</svg>
