<?xml version="1.0" encoding="utf-8"?>
<!-- Generator: Adobe Illustrator 22.0.1, SVG Export Plug-In . SVG Version: 6.00 Build 0)  -->
<svg version="1.1" id="Layer_1" xmlns="http://www.w3.org/2000/svg" xmlns:xlink="http://www.w3.org/1999/xlink" x="0px" y="0px"
	 viewBox="0 0 423.1 300" style="enable-background:new 0 0 423.1 300;" xml:space="preserve">
<style type="text/css">
	.st0{opacity:0.45;fill:#313131;}
	.st1{opacity:0.9;fill:#313131;}
	.st2{opacity:0.85;fill:#313131;}
</style>
<path class="st0" d="M132.9,84.7c-5.8-1.9-11.6-4.4-17.8-3.8c-5.4,0.5-10.9,0.6-16.3-0.9c-4.1-1.1-8.1-0.4-11.8,1.3
	c-4.6,2.1-9.1,4.4-13.7,6.6c-3,1.4-6.1,6-8.8,7.7c-5.2,3.4-10.3,5.2-15.3,9c-5,3.8-11.5,2.9-16.4,6.9c-0.9,0.7-1.7,1.5-2.3,2.5
	c-2.4,4-11.4,14.6-13.5,18.8c-2.4,4.7-4.4,7.9-6.7,12.6c-2.5,5.3,1.6,17.6,1.2,23.3c-0.5,7.2-0.5,14.5,0,21.7
	c0.3,4,5.1,7.9,6.3,11.7c1.3,4.1,3.1,8.1,4.5,12.2c1.4,4.2,4.1,7.6,6.8,11c4.8,5.9,9.6,11.8,14.6,17.5c1.3,1.5,3,2.8,4.8,3.9
	c3.9,2.3,7.9,4.3,11.9,6.5c2,1.1,3.9,1.3,5.9,0.2c2.7-1.5,8.8,1,11.6,1.5c0.4,0.1,0.9,1.1,0.9,1.7c0,4.2-2.2,4,1.8,4.2
	c7.6,0.5,15.2,1,22.8,1.2c5.3,0.2,10.5-0.4,15.6-2.2c1.3-0.4,3,0.2,4.4-0.2c3.8-1.1,7.6-2.1,11.2-3.8c5.2-2.5,10.5-5.2,15.2-8.5
	c6-4.3,11.5-9.2,16.6-14.8c4.6-5.1,9-10.3,12.8-16.1c1.4-2.2,3.6-3.8,5.4-5.7c0.8-0.9,1.7-1.8,2.2-2.9c3.9-7.8,11-16,11.4-24.7
	c0.1-2.4-0.5-4.4-2.3-6.1c-0.9-0.9,2.3-2.1,1.8-3.2c-1.6-4,2.4-6.4,1.2-10.6c-2.5-8.5-11.4-14-5.8-19.1c1.4-1.3,2.6-0.8,3.9,1
	c3.6,5.2,4.7,11.3,5.8,17.3c1.3,7.3-0.3,12.9-1.3,20.2c-0.2,1.2-0.3,2.5-0.1,3.7c0.7,5.2-0.1,10.2-1.5,15.1
	c-1.9,6.9-4.6,13.5-7.9,19.9c-3.6,7.1-8.5,13-14.1,18.5c-2.1,2-3.8,4.4-5.9,6.5c-2,2-4.1,3.9-6.3,5.6c-4.1,3.2-8.4,6.4-12.6,9.5
	c-1.4,1-2.9,1.8-4.4,2.4c-2,0.8-3.9,1.8-5.5,3.3c-0.7,0.7-2,0.9-3,1.3c-2,0.7-4.1,1.3-6.1,1.9c-0.6,0.2-1.2,0.6-1.8,0.7
	c-6.4,1.3-12.7,3.3-19.4,3.3c-3.9,0-7.8,1.1-11.7,1.1c-4.3,0-8.7,0-12.8-1.2c-8.1-2.2-16.3-4.8-24.1-8c-6.9-2.9-13.1-7.3-19-12.1
	c-3.6-3-7.3-5.9-10.7-9.1c-8.5-8-14.9-17.6-20.7-27.7c-5.3-9.1-8.5-18.9-11-28.9c-1.9-7.4-1.5-14.9-1.2-22.5c0.1-3,0.2-6,0.7-9
	c0.8-4.9,1.5-9.9,2.9-14.6c1.6-5.7,3.5-11.4,6-16.7c4.5-9.4,10.1-18.1,17.9-25.2c4.2-3.7,8.1-7.9,12.7-11.1
	c5.2-3.6,10.8-6.5,16.5-9.2c11.3-5.1,23.3-7.2,35.6-8.4c2.4-0.2,4.9,0.2,7.3,0.3c4.3,0.2,8.7,0.2,12.9,0.8
	c13.9,3.6,20.7,6.8,20.5,9.5C134.8,83.3,134.1,84,132.9,84.7z M118.3,269.7c0.1,0.3,0.2,0.6,0.2,0.8c1.4-0.2,9.5-1.8,10.8-2.4
	c3-1.5,5.9-3.2,9.4-3c0.4,0,0.9-0.2,1.3-0.4c4-2.1,7.9-5.7,12-7.6c3.9-1.8,7.2-4.7,10.7-7.2c0.7-0.5,1.1-1.5,1.6-2.3
	c-0.2-0.2-0.4-0.4-0.6-0.6c-1.4,0.8-3,1.3-4.3,2.3c-8.3,6.1-17.1,11.2-27,14.3c-1.7,0.5-3.4,0.9-5.1,1.5
	C126.6,265.4,119.1,269.3,118.3,269.7z M115.5,268.1c-2.8,0.1-5,0.5-7.5,1.2C110.2,271.3,112.1,270.9,115.5,268.1z"/>
<path class="st1" d="M212.3,47.9c3.4-1.3,5.4-4.3,6.4-6c-0.3-0.3-0.6-0.8-0.6-1.4c0-0.4,0.1-0.6,0-0.8c-0.1-0.4-0.6-0.7-2.5-0.8
	c0,0,0,0,0,0c0,0,0,0,0,0c-0.4-0.1-7.4-2.4-8.2,1.7c-0.4,2-0.4,3.7,1.5,7.6C210,48.7,211.4,48.2,212.3,47.9z"/>
<g>
	<path class="st2" d="M395.9,235.1c7.7-13,14.5-26.4,18.4-41.2c4.3-16.4,7.7-32.9,7.2-49.9c-0.2-6.8-0.9-13.7-1.6-20.5
		c-1.1-11-3-21.9-7.1-32c-4.6-11.4-10.4-22.4-16.5-33.1c-3-5.4-7.6-10-12-14.4c-4-4-9.1-7-13.2-11c-6.9-6.8-15.5-11.2-23.4-16.5
		c-0.8-0.5-1.8-0.7-2.6-1.1c-2.8-1.4-5.5-2.9-8.3-4.3c-1.4-0.7-2.9-1.8-4.4-1.8c-3.3,0-6.2-0.9-9.1-2.2c-2.2-1-4.7-1.7-7.1-2.1
		c-7.6-1.2-15.2-2.3-22.8-3.3c-4.1-0.5-8.2-0.7-12.3-0.6c-4.2,0-8.5,0.6-12.7,0.6c-11.4,0-22.6,1-33.6,4.6
		c-10,3.3-19.6,7.2-28.6,12.4c-6.4,3.7-12.5,8-17,14c-1.1,1.4-2.5,2.6-3.9,3.6c-8.6,6.5-16.1,14.1-22.2,22.9
		c-5.1,7.3-10.2,14.7-11.8,23.7c-0.6,3.2,0.1,4.9,3,5.1c11,0.5,20.9-1.1,27.1-12.4c3-5.5,5.5-11.4,8-17.1c0.7-1.7,1.1-3.7,1.1-5.6
		c0-3.6,1.5-6.4,4-8.7c9.4-8.5,20.1-14.7,32.1-18.7c1.7-0.6,3.5-0.6,5.3-0.7c3.8-0.2,7.8,0.4,11.5-0.3c9.9-1.9,19.7-2.8,29.8-3.3
		c10.9-0.6,21.7,0,32.3,1.8c8.3,1.4,16.5,4.1,24.5,7c5.4,1.9,10.4,4.8,15.5,7.6c1.8,1,2.9,3.4,4.7,4.3c7,3.5,13,8.2,18.3,13.8
		c7.6,8.1,14.9,16.4,22.2,24.8c3.8,4.4,3.5,6.9-0.8,11.3c-0.6,0.6-1.2,2.2-0.9,2.7c2.3,3.3,4.3,7.1,8.7,8.4c3.2,0.9,5,3.2,5.9,6.3
		c1.9,6.3,3.9,12.6,5.6,18.9c0.8,2.9,1.2,6,1,8.9c-0.8,11.1-1.9,22.1-3,33.1c-0.6,6.3-1.4,12.5-4.3,18.3c-2.8,5.7-5,11.6-7.9,17.2
		c-2.7,5.2-5.2,10.8-9,15.2c-6.9,7.9-14.4,15.5-22.3,22.4c-6.3,5.5-13,10.5-21.1,13.4c-7.2,2.5-14.3,5.5-21.6,7.8
		c-6.5,2.1-13.2,3.7-19.8,5.4c-1.5,0.4-3.3,0.3-4.9,0.2c-9.1-0.9-18.3-1.7-27.4-3c-8.9-1.3-17.9-2.9-26.7-4.8c-4.7-1-9.1-3-13.7-4.5
		c-7-2.4-14-4.7-21-7.3c-5.6-2.1-10.5-5.5-13.5-10.9c-4-7.1-9.8-12.7-15.9-17.7c-7-5.7-12.1-12.6-16.1-20.5
		c-5-9.9-7.8-20.5-10.2-31.2c-0.4-1.7-0.6-3.6-1.4-5.1c-2.8-5.7-3.3-11.9-3.7-18c-0.2-2.7-0.6-5.5-0.2-8.2
		c0.9-6.4,2.3-12.7,3.2-19.1c0.4-3,0.4-6,0.2-9c-0.2-2.2-1.8-3.7-4-4.1c-2.1-0.4-3.4,0.9-4.4,2.4c-0.7,1.1-1.5,2.4-1.8,3.7
		c-1.3,6.6-2.5,13.2-3.6,19.8c-0.6,3.4-0.6,6.8-1.4,10.2c-1.9,8.9-1.4,17.8-0.6,26.6c1.1,12.4,4.8,24.2,9.2,35.8
		c4.7,12.4,11.1,23.9,19.1,34.4c3.8,5,8.3,9.5,12.5,14.2c2.4,2.7,4.5,5.6,7.2,7.9c13.8,11.4,28.4,21.7,45.3,28
		c8.6,3.2,17.5,5.9,26.5,7.6c8,1.5,16.4,1.2,24.6,1.7c15.4,0.7,30.1-2.4,44.4-7.5c8.1-2.9,15.9-6.9,23.4-11.1c2.4-1.3,4.7-2.8,7-4.3
		c1.7,0.9,3.5,1.2,5.2,0.2c5.8-3.3,10.7,0.8,10.7,0.8s-4.8-0.7-6.9,5.4c-0.2,0.2-0.4,0.4-0.5,0.8c-0.1,0.4-0.1,0.8-0.1,1.3
		c-1.5,8.1,14,4.9,14,4.9s7.4-9.9,15.7-8.2s9.1-17.3,9.1-17.3s-2.5-9.1-6.6-4.9c-4.1,4.1-5.8-0.8-7.4-0.8s-4.1-2.5-6.6-0.8
		c-2.5,1.6-4.6,4.8-7.4,5.8c-2.5,0.8-0.8,0-3.3,2.5c-0.6,0.6-1.2,0.6-1.7,0.2c2.3-2,4.6-4.1,6.8-6.1
		C382,252,390.2,244.6,395.9,235.1z"/>
	<path class="st1" d="M351.1,281.3c-0.2,0.1-0.5,0.2-0.9,0.2c-0.2,0-0.3-0.1-0.5-0.1c-0.2,0-0.5,0.3-0.7,1.3c0,0,0,0,0,0
		c0,0,0,0,0,0c-0.1,0.2-2.1,4,0.1,4.9c1.1,0.4,2.1,0.6,4.5-0.1c0.5-0.6,0.3-1.4,0.2-2C353.5,283.4,352,282,351.1,281.3z"/>
</g>
</svg>
