<?xml version="1.0" encoding="utf-8"?>
<!-- Generator: Adobe Illustrator 22.0.1, SVG Export Plug-In . SVG Version: 6.00 Build 0)  -->
<svg version="1.1" id="Layer_1" xmlns="http://www.w3.org/2000/svg" xmlns:xlink="http://www.w3.org/1999/xlink" x="0px" y="0px"
	 viewBox="0 0 419.1 300" style="enable-background:new 0 0 419.1 300;" xml:space="preserve">
<style type="text/css">
	.st0{opacity:0.5;fill:#313131;}
	.st1{opacity:0.9;fill:#313131;}
</style>
<path class="st0" d="M132.3,86.2c-5.8-1.9-11.7-4.4-17.9-3.8c-5.4,0.6-11,0.6-16.4-0.9c-4.1-1.1-8.1-0.4-11.9,1.3
	c-4.7,2.1-9.2,4.4-13.8,6.7c-3,1.5-6.1,6-8.9,7.8c-5.2,3.4-10.4,5.3-15.4,9c-5.1,3.8-11.6,2.9-16.5,6.9c-0.9,0.7-1.7,1.5-2.3,2.5
	c-2.4,4.1-11.5,14.7-13.6,19c-2.4,4.7-4.4,8-6.7,12.7c-2.6,5.3,1.6,17.8,1.2,23.5c-0.5,7.3-0.5,14.6,0,21.8c0.3,4,5.1,7.9,6.4,11.8
	c1.3,4.1,3.1,8.1,4.5,12.3c1.4,4.2,4.1,7.7,6.9,11c4.8,5.9,9.7,11.8,14.7,17.6c1.3,1.5,3.1,2.9,4.8,3.9c3.9,2.3,8,4.3,12,6.5
	c2,1.1,4,1.3,6,0.2c2.8-1.5,8.9,1,11.7,1.5c0.4,0.1,0.9,1.1,0.9,1.7c0,4.3-2.3,4,1.8,4.2c7.6,0.5,15.3,1,23,1.2
	c5.3,0.2,10.6-0.5,15.7-2.2c1.3-0.5,3,0.2,4.4-0.2c3.8-1.1,7.7-2.2,11.2-3.9c5.3-2.5,10.6-5.2,15.3-8.6c6.1-4.3,11.6-9.3,16.7-14.9
	c4.6-5.2,9-10.4,12.9-16.2c1.5-2.2,3.7-3.8,5.5-5.8c0.8-0.9,1.7-1.8,2.2-2.9c3.9-7.8,11.1-16.1,11.5-24.8c0.1-2.4-0.5-4.4-2.3-6.2
	c-0.9-0.9-1.7-2.1-2.2-3.3c-1.6-4.1-1.6-6.5-2.8-10.6c-2.5-8.5-3.4-14.1,2.2-19.3c1.5-1.3,2.6-0.8,3.9,1c3.6,5.2,4.7,11.3,5.8,17.4
	c1.3,7.3-0.3,13-1.3,20.4c-0.2,1.2-0.3,2.5-0.1,3.7c0.7,5.2-0.1,10.3-1.5,15.2c-1.9,7-4.6,13.6-7.9,20.1
	c-3.6,7.2-8.6,13.1-14.2,18.7c-2.1,2.1-3.8,4.4-5.9,6.5c-2,2-4.1,3.9-6.3,5.7c-4.2,3.3-8.4,6.4-12.7,9.5c-1.4,1-2.9,1.8-4.5,2.5
	c-2.1,0.8-3.9,1.8-5.5,3.4c-0.7,0.7-2,1-3,1.3c-2,0.7-4.1,1.3-6.2,1.9c-0.6,0.2-1.2,0.6-1.8,0.7c-6.5,1.3-12.8,3.3-19.5,3.4
	c-3.9,0-7.9,1.1-11.8,1.1c-4.3,0-8.8,0-12.9-1.2c-8.2-2.3-16.4-4.8-24.2-8.1c-7-2.9-13.2-7.3-19.1-12.2c-3.7-3-7.3-6-10.8-9.2
	c-8.6-8.1-15-17.8-20.8-27.9c-5.3-9.1-8.5-19-11.1-29.1c-1.9-7.4-1.5-15.1-1.3-22.6c0.1-3,0.2-6.1,0.7-9.1c0.8-5,1.5-10,2.9-14.8
	c1.6-5.7,3.5-11.5,6-16.8c4.5-9.5,10.2-18.2,18-25.4c4.2-3.8,8.2-8,12.8-11.2c5.2-3.6,10.9-6.6,16.6-9.2c11.3-5.2,23.5-7.2,35.8-8.4
	c2.4-0.2,4.9,0.2,7.4,0.3c4.3,0.2,8.7,0.2,13,0.8c14,3.6,20.9,6.8,20.7,9.6C134.2,84.8,133.6,85.5,132.3,86.2z M117.6,272.6
	c0.1,0.3,0.2,0.6,0.3,0.9c1.4-0.2,9.6-1.8,10.8-2.4c3-1.5,5.9-3.2,9.5-3c0.4,0,0.9-0.2,1.3-0.4c4-2.1,8-5.8,12.1-7.7
	c3.9-1.8,7.3-4.7,10.8-7.3c0.7-0.5,1.1-1.5,1.6-2.3c-0.2-0.2-0.4-0.4-0.6-0.6c-1.4,0.8-3,1.4-4.3,2.3c-8.3,6.2-17.2,11.3-27.2,14.4
	c-1.7,0.5-3.5,0.9-5.2,1.5C125.9,268.3,118.5,272.2,117.6,272.6z M114.8,271c-2.8,0.1-5.1,0.5-7.5,1.2
	C109.4,274.1,111.4,273.8,114.8,271z"/>
<path class="st1" d="M208.3,47.1c3.4-1.3,5.4-4.3,6.4-6c-0.3-0.3-0.6-0.8-0.6-1.4c0-0.4,0.1-0.6,0-0.8c-0.1-0.4-0.7-0.7-2.5-0.8
	c0,0,0,0,0,0c0,0,0,0,0,0c-0.4-0.1-7.5-2.4-8.3,1.7c-0.4,2.1-0.4,3.7,1.5,7.7C206,48,207.4,47.5,208.3,47.1z"/>
<g>
	<path class="st1" d="M393.2,235.7c7.8-13.1,14.6-26.6,18.6-41.5c4.4-16.5,7.8-33.1,7.2-50.2c-0.2-6.9-0.9-13.8-1.6-20.6
		c-1.1-11-3.1-22.1-7.2-32.3c-4.7-11.5-10.5-22.6-16.6-33.3c-3.1-5.4-7.7-10.1-12.1-14.5c-4.1-4.1-9.2-7-13.3-11.1
		c-7-6.9-15.6-11.3-23.6-16.7c-0.8-0.5-1.8-0.7-2.7-1.2c-2.8-1.4-5.6-3-8.4-4.4c-1.4-0.7-3-1.8-4.5-1.8c-3.3,0-6.2-0.9-9.2-2.2
		c-2.3-1-4.7-1.7-7.1-2.1c-7.6-1.2-15.3-2.4-23-3.3c-4.1-0.5-8.2-0.7-12.4-0.7c-4.3,0-8.5,0.6-12.8,0.6c-11.5,0-22.8,1-33.9,4.6
		c-10.1,3.3-19.7,7.3-28.8,12.5c-6.5,3.7-12.6,8-17.2,14.2c-1.1,1.4-2.5,2.6-3.9,3.6c-8.7,6.5-16.2,14.2-22.4,23.1
		c-5.1,7.4-10.3,14.8-11.9,23.9c-0.6,3.2,0.1,5,3,5.1c11.1,0.5,21-1.1,27.3-12.5c3-5.6,5.5-11.4,8.1-17.3c0.8-1.7,1.1-3.8,1.1-5.6
		c0-3.6,1.5-6.4,4-8.7c9.5-8.6,20.3-14.8,32.3-18.9c1.7-0.6,3.5-0.6,5.3-0.7c3.9-0.2,7.9,0.4,11.6-0.3c9.9-1.9,19.9-2.8,30-3.4
		c11-0.6,21.9,0,32.6,1.8c8.4,1.4,16.6,4.2,24.7,7c5.4,1.9,10.5,4.8,15.6,7.6c1.8,1,2.9,3.5,4.7,4.4c7,3.5,13.1,8.2,18.4,13.9
		c7.6,8.2,15,16.5,22.4,25c3.9,4.4,3.5,6.9-0.8,11.3c-0.6,0.6-1.2,2.2-0.9,2.7c2.4,3.3,4.4,7.1,8.8,8.4c3.2,0.9,5.1,3.2,6,6.3
		c1.9,6.4,4,12.7,5.6,19.1c0.8,2.9,1.2,6,1,9c-0.8,11.1-1.9,22.3-3,33.4c-0.6,6.3-1.4,12.6-4.3,18.4c-2.8,5.7-5.1,11.7-8,17.3
		c-2.7,5.3-5.2,10.9-9,15.3c-7,8-14.5,15.6-22.5,22.6c-6.3,5.5-13.1,10.6-21.2,13.5c-7.3,2.6-14.4,5.5-21.8,7.9
		c-6.5,2.1-13.3,3.8-19.9,5.5c-1.6,0.4-3.3,0.3-4.9,0.2c-9.2-0.9-18.4-1.7-27.6-3c-9-1.3-18-2.9-26.9-4.8c-4.7-1-9.2-3-13.8-4.6
		c-7-2.4-14.1-4.7-21.1-7.4c-5.7-2.2-10.6-5.5-13.6-10.9c-4-7.1-9.8-12.8-16-17.8c-7-5.7-12.2-12.7-16.3-20.7
		c-5.1-9.9-7.8-20.6-10.3-31.4c-0.4-1.7-0.7-3.6-1.4-5.2c-2.8-5.8-3.3-11.9-3.7-18.1c-0.2-2.7-0.6-5.5-0.2-8.2
		c0.9-6.4,2.3-12.8,3.2-19.2c0.4-3,0.4-6.1,0.2-9.1c-0.2-2.2-1.8-3.7-4-4.2c-2.1-0.4-3.4,0.9-4.4,2.4c-0.8,1.1-1.5,2.4-1.8,3.7
		c-1.3,6.6-2.5,13.3-3.6,19.9c-0.6,3.4-0.6,6.9-1.4,10.3c-1.9,8.9-1.5,17.9-0.7,26.8c1.1,12.5,4.9,24.4,9.3,36
		c4.7,12.5,11.2,24.1,19.3,34.6c3.8,5,8.4,9.6,12.6,14.3c2.4,2.7,4.5,5.7,7.3,7.9c13.9,11.5,28.6,21.9,45.6,28.2
		c8.6,3.2,17.6,6,26.7,7.6c8.1,1.5,16.5,1.2,24.8,1.7c15.5,0.7,30.4-2.4,44.7-7.6c8.2-2.9,16-6.9,23.6-11.1c2.4-1.3,4.7-2.8,7-4.3
		c1.7,0.9,3.5,1.2,5.3,0.2c5.8-3.3,10.8,0.8,10.8,0.8s-4.8-0.7-6.9,5.5c-0.2,0.2-0.4,0.5-0.5,0.8c-0.1,0.4-0.1,0.8-0.1,1.3
		c-1.5,8.2,14.1,4.9,14.1,4.9s7.5-10,15.8-8.3c8.3,1.7,9.1-17.4,9.1-17.4s-2.5-9.1-6.6-5c-4.2,4.2-5.8-0.8-7.5-0.8s-4.2-2.5-6.6-0.8
		c-2.5,1.7-4.6,4.9-7.5,5.8c-2.5,0.8-0.8,0-3.3,2.5c-0.6,0.6-1.2,0.6-1.7,0.2c2.4-2,4.6-4.1,6.9-6.2
		C379.3,252.8,387.5,245.3,393.2,235.7z M347.5,28.1c-1.3-0.4-2.8-0.7-4-1.3c-2.3-1.2-4.5-2.6-6.9-3.8c-13.5-7-27.9-10.9-42.8-13.2
		c-2.3-0.3-4.6-1.4-6.8-2.1c0-0.4,0-0.8,0.1-1.3c1.4-0.3,2.8-0.9,4.1-0.7c6.2,1,12.7,1.5,18.6,3.6c6.2,2.3,12.4,4.3,18.6,6.3
		c0.6,0.2,1.3,0.5,1.8,1c3.5,3.9,8.2,5.1,12.9,6.7c1.9,0.6,3.4,2.3,5.1,3.5C348,27.4,347.7,27.7,347.5,28.1z M359.1,36.1
		c6.4,0.6,8.7,2.2,9,6.5C364.8,40.9,362.1,39,359.1,36.1z"/>
	<path class="st1" d="M348.1,282.2c-0.2,0.1-0.5,0.2-0.9,0.2c-0.2,0-0.3-0.1-0.5-0.1c-0.2,0-0.5,0.3-0.7,1.3c0,0,0,0,0,0
		c0,0,0,0,0,0c-0.1,0.2-2.1,4,0.1,4.9c1.1,0.4,2.1,0.6,4.5-0.1c0.5-0.6,0.3-1.4,0.2-2C350.5,284.4,349,282.9,348.1,282.2z"/>
</g>
</svg>
