<?xml version="1.0" encoding="utf-8"?>
<!-- Generator: Adobe Illustrator 22.0.1, SVG Export Plug-In . SVG Version: 6.00 Build 0)  -->
<svg version="1.1" id="Layer_1" xmlns="http://www.w3.org/2000/svg" xmlns:xlink="http://www.w3.org/1999/xlink" x="0px" y="0px"
	 viewBox="0 0 67.3 15.5" style="enable-background:new 0 0 67.3 15.5;" xml:space="preserve">
<style type="text/css">
	.st0{fill:#2296BC;}
</style>
<g>
	<g>
		<path d="M14.7,8.4c0.1,0.1,0.2,0.1,0.2,0.2c0,0.1,0,0.2,0,0.3c-0.5,1.1-1.1,2-1.6,2.9c-0.5,0.8-0.9,1.5-1.4,2
			c-0.4,0.5-0.8,0.8-1.2,1S10.1,15,9.7,15c-0.4-0.1-0.8-0.3-1.1-0.8c-0.2-0.4-0.5-0.8-0.7-1.4c-0.2-0.5-0.3-1.1-0.5-1.8
			S7.1,9.7,7,9.1C7,9,7,8.9,7,8.7c0-0.1,0-0.2-0.1-0.3C6.8,8.6,6.7,8.9,6.6,9.2c-0.1,0.3-0.2,0.7-0.3,1.2c-0.2,0.7-0.3,1.5-0.5,2.2
			s-0.2,1.4-0.2,2c0,0.2-0.1,0.3-0.2,0.4C5.3,15,5.2,15,5.2,15C5.1,15,5.1,15,5,15s-0.2-0.2-0.2-0.4c0-0.3,0-0.6-0.1-1
			c0-0.4-0.1-0.8-0.1-1.2c-0.1-0.4-0.1-0.8-0.2-1.2c-0.1-0.4-0.1-0.8-0.2-1.1C4.1,9.5,4,9,3.9,8.8C3.8,8.5,3.7,8.3,3.7,8.2
			c0,0.1-0.1,0.2-0.2,0.3C3.4,8.6,3.4,8.8,3.3,9.1C3.2,9.3,3.1,9.7,3,10c-0.1,0.4-0.2,0.9-0.3,1.4c-0.1,0.4-0.2,0.8-0.2,1.2
			c-0.1,0.4-0.1,0.7-0.2,1c-0.1,0.3-0.1,0.6-0.2,1c0,0.1-0.1,0.2-0.1,0.3C1.9,15,1.8,15,1.7,15c-0.3,0-0.4-0.2-0.4-0.4
			c0,0,0-0.2,0-0.6c0-0.4-0.1-0.8-0.1-1.4c0-0.6-0.1-1.2-0.2-1.9c-0.1-0.7-0.2-1.3-0.3-1.9c0-0.1,0-0.2,0.1-0.3S1,8.4,1.1,8.3
			c0.1,0,0.2,0,0.3,0.1c0.1,0.1,0.2,0.2,0.2,0.3c0.1,0.4,0.1,0.8,0.2,1.2c0.1,0.4,0.1,0.8,0.1,1.2c0.1-0.5,0.2-0.9,0.3-1.3
			c0.1-0.4,0.2-0.7,0.3-1c0.2-0.6,0.3-0.9,0.5-1.2c0.1-0.2,0.3-0.3,0.4-0.4c0.2-0.1,0.3-0.1,0.5-0.1C4,7.3,4.2,7.4,4.3,7.6
			C4.4,7.8,4.5,8,4.6,8.2C4.8,8.6,4.9,9.1,5,9.8l0.2,1.3c0-0.2,0.1-0.4,0.1-0.7c0-0.2,0.1-0.4,0.2-0.7c0.1-0.3,0.2-0.7,0.3-1
			S6,8.3,6.1,8.1c0.1-0.2,0.2-0.4,0.4-0.6S6.8,7.2,7,7.2c0.1,0,0.1,0,0.2,0c0.1,0,0.2,0.1,0.3,0.3C7.6,7.6,7.7,7.8,7.7,8l0.2,0.9
			c0.1,0.6,0.2,1.3,0.4,1.9c0.1,0.6,0.3,1.2,0.5,1.7c0.3,1,0.7,1.6,1.1,1.6c0.4,0.1,0.9-0.3,1.5-1c0.4-0.4,0.8-1.1,1.3-1.9
			c0.5-0.8,1-1.7,1.5-2.8c0.1-0.1,0.1-0.2,0.2-0.2C14.5,8.3,14.6,8.3,14.7,8.4z"/>
		<path d="M25,8.4c0.1,0,0.2,0.1,0.2,0.2c0,0.1,0,0.2,0,0.3c-0.4,1-0.9,1.9-1.4,2.7c-0.5,0.8-1,1.5-1.4,2c-0.5,0.5-1,0.9-1.4,1.1
			C20.6,14.9,20.3,15,20,15c-0.2,0-0.3,0-0.3,0c-0.2,0-0.5-0.2-0.8-0.3c-0.3-0.2-0.6-0.5-0.8-1L17.8,13c-0.1,0.4-0.3,0.7-0.5,1
			c-0.5,0.7-1,1.1-1.7,1c-0.3,0-0.6-0.1-0.9-0.4c-0.3-0.2-0.5-0.5-0.7-0.9c-0.4-0.7-0.6-1.6-0.5-2.6c0.1-1.2,0.4-2.2,0.9-2.9
			c0.5-0.7,1.1-1.1,1.7-1.2c0.5,0,0.9,0.1,1.3,0.5c0.4,0.4,0.6,0.9,0.8,1.6c0,0.3-0.1,0.4-0.3,0.5c-0.1,0-0.2,0-0.3-0.1
			c-0.1-0.1-0.2-0.2-0.2-0.3C17.2,9,17,8.6,16.8,8.3C16.6,8.1,16.4,8,16.1,8c-0.2,0-0.4,0.1-0.6,0.2S15.2,8.6,15,8.9
			c-0.2,0.3-0.3,0.6-0.4,1c-0.1,0.4-0.2,0.9-0.2,1.4c-0.1,0.8,0.1,1.5,0.4,2.1c0.1,0.2,0.3,0.4,0.5,0.5c0.2,0.1,0.3,0.2,0.5,0.2
			c0.2,0,0.4,0,0.5-0.2c0.2-0.1,0.3-0.3,0.4-0.4c0.1-0.2,0.3-0.5,0.4-1c0.2-0.4,0.3-1,0.4-1.8c0-0.3,0.2-0.4,0.4-0.4
			c0.1,0,0.2,0,0.3,0.1s0.1,0.2,0.1,0.3c0.1,1,0.2,1.8,0.5,2.4c0.3,0.6,0.6,0.9,1,1c0.2,0,0.5,0,0.9-0.2s0.7-0.5,1.1-0.9
			c0.4-0.4,0.8-1,1.3-1.7c0.4-0.7,0.9-1.6,1.4-2.7c0.1-0.1,0.1-0.2,0.2-0.2C24.8,8.3,24.9,8.3,25,8.4z"/>
		<path d="M34.9,8.4c0.1,0.1,0.2,0.1,0.2,0.2c0,0.1,0,0.2,0,0.3c-0.4,0.8-0.8,1.7-1.3,2.5c-0.4,0.8-0.9,1.4-1.3,1.9
			c-0.9,1.1-1.8,1.7-2.5,1.7c-0.1,0-0.3,0-0.4-0.1c-0.7-0.2-1.2-0.8-1.5-2c-0.1,0.4-0.3,0.7-0.5,1c-0.4,0.7-1,1-1.6,1
			c-0.1,0-0.1,0-0.1,0c-0.3,0-0.6-0.1-0.9-0.4c-0.3-0.2-0.5-0.5-0.7-0.9c-0.4-0.7-0.6-1.6-0.5-2.6c0-0.6,0.1-1.1,0.3-1.6
			s0.3-0.9,0.6-1.3c0.2-0.4,0.5-0.6,0.8-0.8c0.3-0.2,0.6-0.3,0.9-0.3c0.4,0,0.9,0.1,1.2,0.5c0-0.8,0-1.6,0.1-2.5s0.1-1.9,0.2-2.9
			c0-0.4,0.1-0.8,0.1-1C28,0.9,28,0.6,28.1,0.5c0.1-0.2,0.2-0.3,0.2-0.3c0.1-0.1,0.2-0.1,0.2-0.1s0.2,0,0.3,0s0.3,0.1,0.4,0.3
			c0.2,0.3,0.4,0.7,0.5,1.2c0.1,0.6,0.1,1.2,0.1,1.9c0,0.6-0.1,1.4-0.3,2.3c-0.2,0.9-0.6,1.9-1.2,3v0c0,0.5,0.1,1,0.1,1.4
			c0,0.4,0.1,0.9,0.2,1.2c0.1,0.5,0.2,1,0.3,1.3c0.1,0.3,0.2,0.6,0.3,0.8s0.2,0.3,0.3,0.4c0.1,0.1,0.2,0.1,0.3,0.2
			c0.2,0.1,0.5,0,0.9-0.2c0.3-0.2,0.7-0.6,1.1-1.1c0.4-0.5,0.8-1.1,1.2-1.9s0.8-1.6,1.2-2.4c0.1-0.1,0.1-0.2,0.2-0.2
			C34.7,8.3,34.8,8.3,34.9,8.4z M26.9,13.5c0.1-0.2,0.3-0.5,0.5-1c0.2-0.4,0.3-1,0.3-1.8v0c0-0.2,0-0.4-0.1-0.5c0-0.2,0-0.4,0-0.6
			c0,0-0.1-0.1-0.1-0.2c-0.1-0.5-0.3-0.8-0.5-1.1C26.9,8.1,26.7,8,26.4,8c-0.2,0-0.4,0.1-0.6,0.2s-0.4,0.4-0.5,0.6
			c-0.2,0.3-0.3,0.6-0.4,1c-0.1,0.4-0.2,0.9-0.2,1.4c0,0.4,0,0.8,0.1,1.1c0.1,0.4,0.2,0.7,0.3,1c0.1,0.2,0.3,0.4,0.5,0.5
			c0.2,0.1,0.3,0.2,0.5,0.2c0.2,0,0.4,0,0.6-0.2C26.7,13.8,26.8,13.7,26.9,13.5z M28.6,2.2c-0.1,0.8-0.1,1.6-0.2,2.3
			S28.4,6,28.4,6.7c0.2-0.6,0.4-1.1,0.5-1.7c0.1-0.6,0.2-1.1,0.2-1.7c0-0.6,0-1-0.1-1.4c-0.1-0.4-0.1-0.6-0.2-0.8
			c0,0.1-0.1,0.2-0.1,0.4C28.7,1.7,28.7,1.9,28.6,2.2z"/>
		<path d="M34.3,4.9c0-0.1,0-0.1,0-0.2c0,0,0,0,0-0.1c0,0,0-0.1,0-0.1c0-0.1,0-0.2,0-0.3c0.1-0.1,0.1-0.2,0.2-0.2c0.1,0,0.2,0,0.3,0
			C35,4,35.1,4.1,35.1,4.2c0.1,0.2,0.1,0.3,0.1,0.4c0,0.1,0,0.2,0,0.4c0,0.1-0.1,0.2-0.2,0.3c-0.1,0.1-0.2,0.1-0.3,0.1h-0.1
			c-0.1,0-0.2-0.1-0.3-0.2C34.3,5.1,34.3,5,34.3,4.9z M41.9,8.4c0.1,0,0.2,0.1,0.2,0.2c0,0.1,0,0.2,0,0.3c-0.4,1-0.9,1.9-1.4,2.8
			c-0.5,0.8-1,1.5-1.5,2s-0.9,0.8-1.3,1c-0.4,0.2-0.7,0.3-1,0.3c-0.1,0-0.2,0-0.2,0c-0.1,0-0.1,0-0.2,0c-0.3-0.1-0.6-0.2-0.9-0.5
			c-0.3-0.3-0.6-0.7-0.9-1.4c-0.2-0.5-0.3-1.2-0.3-1.9s-0.1-1.6,0-2.4c0-0.1,0.1-0.2,0.2-0.3c0.1-0.1,0.2-0.1,0.3-0.1
			c0.1,0,0.2,0.1,0.3,0.2c0.1,0.1,0.1,0.2,0.1,0.3c0,0.8,0,1.5,0,2.2s0.1,1.3,0.3,1.8c0.1,0.3,0.2,0.5,0.4,0.8
			c0.2,0.3,0.4,0.5,0.7,0.5c0,0,0.1,0,0.2,0c0.5,0,1.1-0.3,1.7-1c0.5-0.5,0.9-1.1,1.4-1.9c0.5-0.8,0.9-1.7,1.3-2.6
			c0-0.1,0.1-0.2,0.2-0.2C41.6,8.3,41.7,8.3,41.9,8.4z"/>
		<path d="M49.6,8.4c0.1,0.1,0.2,0.2,0.2,0.3c0,0.1,0,0.2-0.1,0.3c-0.2,0.3-0.5,0.5-0.8,0.8c-0.3,0.3-0.7,0.5-1.1,0.7
			c-0.3,0.1-0.7,0.3-1,0.4c-0.4,0.1-0.7,0.3-1.1,0.4c0.4,0.7,0.4,1.4-0.1,2.2c-0.1,0.2-0.3,0.5-0.5,0.6c-0.2,0.2-0.4,0.3-0.6,0.4
			c-0.2,0.1-0.4,0.2-0.6,0.3c-0.2,0.1-0.4,0.1-0.5,0.1c-0.4,0.1-0.7,0.1-1,0.1c-0.6,0-1.1-0.1-1.5-0.3c-0.3-0.2-0.5-0.4-0.6-0.7
			c0-0.1,0-0.3,0-0.4c0-0.2,0.1-0.3,0.2-0.5c0.3-0.6,1-1.1,1.9-1.5c0.3-0.1,0.5-0.2,0.8-0.4c0.3-0.1,0.6-0.2,0.9-0.3
			c-0.1-0.1-0.2-0.1-0.3-0.2c-0.1-0.1-0.2-0.2-0.4-0.2c-0.3-0.2-0.5-0.3-0.8-0.5c-0.3-0.2-0.5-0.4-0.7-0.6c-0.5-0.5-0.8-1-0.8-1.6
			c0-0.7,0.1-1.4,0.3-1.8c0.2-0.5,0.5-0.8,0.9-0.9C42.4,5,42.6,5,42.8,5c0.2,0.1,0.3,0.2,0.4,0.4c0.2,0.4,0.3,0.9,0.1,1.5
			c-0.2,0.6-0.5,1.2-1,1.8c0.2,0.2,0.4,0.4,0.6,0.5s0.5,0.3,0.8,0.5c0.2,0.1,0.4,0.3,0.6,0.4c0.2,0.1,0.4,0.3,0.6,0.4
			c0.4-0.1,0.8-0.3,1.2-0.4s0.8-0.3,1.1-0.5c0.4-0.2,0.7-0.3,0.9-0.5s0.5-0.4,0.7-0.6c0.1-0.1,0.2-0.2,0.3-0.2S49.5,8.4,49.6,8.4z
			 M44.9,13c0.2-0.3,0.3-0.6,0.2-0.8c0-0.2-0.1-0.5-0.3-0.7c-0.4,0.1-0.8,0.3-1.2,0.4c-0.4,0.1-0.7,0.3-1.1,0.4
			c-0.3,0.2-0.6,0.3-0.9,0.5c-0.3,0.2-0.4,0.4-0.6,0.6c-0.1,0.2-0.1,0.3,0.1,0.5c0.2,0.1,0.5,0.2,0.8,0.2c0.3,0,0.7,0,1-0.1
			C44,13.9,44.6,13.6,44.9,13z M41.9,7.7c0,0.1,0,0.1,0,0.2c0.3-0.4,0.5-0.8,0.6-1.1c0.1-0.3,0.1-0.6,0.1-0.8c0-0.2-0.1-0.2-0.2-0.1
			C42.2,6,42.1,6.2,42,6.5C41.9,6.8,41.9,7.2,41.9,7.7z"/>
		<path d="M57.2,8.5c0.1,0.1,0.1,0.2,0.1,0.3c0,0.1-0.1,0.2-0.1,0.3c-0.2,0.2-0.5,0.4-0.8,0.6c-0.3,0.2-0.6,0.3-0.9,0.4
			c-0.3,0.1-0.6,0.2-0.9,0.2c-0.3,0-0.6,0.1-0.9,0.1v0c0,0.5-0.1,1.1-0.2,1.6c-0.1,0.5-0.3,1-0.5,1.4c-0.3,0.5-0.6,0.9-0.9,1.2
			C51.8,14.9,51.4,15,51,15c-0.9,0-1.6-0.4-2.1-1.3c-0.2-0.3-0.3-0.7-0.4-1.1c-0.1-0.4-0.2-0.9-0.2-1.3c0-0.5,0.1-0.9,0.2-1.4
			c0.1-0.5,0.3-0.9,0.5-1.3c0.1-0.1,0.1-0.2,0.2-0.2c0.1,0,0.2,0,0.3,0c0.1,0.1,0.2,0.2,0.2,0.3c0,0.1,0,0.2,0,0.3
			c-0.2,0.3-0.3,0.6-0.4,1c-0.1,0.4-0.1,0.8-0.2,1.2s0,0.8,0.1,1.2c0.1,0.4,0.2,0.7,0.3,1c0.3,0.6,0.8,0.9,1.3,0.9
			c0.2,0,0.3,0,0.4-0.1c0.1-0.1,0.3-0.2,0.4-0.3c0.1-0.1,0.2-0.2,0.3-0.4c0.1-0.1,0.1-0.2,0.2-0.3c0.2-0.4,0.3-0.8,0.4-1.3
			c0.1-0.5,0.2-0.9,0.2-1.4v-0.1c-0.4-0.1-0.8-0.1-1.1-0.2c-0.3-0.1-0.6-0.2-0.8-0.3c-0.4-0.2-0.7-0.5-0.8-0.8
			c-0.1-0.3-0.1-0.6-0.1-0.8c0.1-0.3,0.2-0.5,0.5-0.8c0.3-0.2,0.6-0.3,1-0.3s0.7,0.1,0.9,0.3c0.3,0.2,0.5,0.4,0.7,0.8
			c0.2,0.3,0.3,0.7,0.4,1.2c0,0,0,0,0.1,0c0,0,0,0,0,0c0.5,0,1-0.1,1.5-0.2s1-0.4,1.4-0.8c0.1-0.1,0.2-0.1,0.3-0.1
			C57.1,8.3,57.2,8.4,57.2,8.5z M51.4,9c0.1,0.1,0.3,0.1,0.5,0.2c0.2,0.1,0.5,0.1,0.9,0.2c-0.1-0.3-0.1-0.5-0.3-0.7
			C52.3,8.2,52,8,51.6,8c-0.2,0-0.4,0-0.5,0.1C51.1,8.2,51,8.3,51,8.4C50.9,8.6,51.1,8.8,51.4,9z"/>
		<path d="M67.1,8.4c0.1,0.1,0.2,0.1,0.2,0.2c0,0.1,0,0.2,0,0.3c-0.6,1.1-1.1,2-1.6,2.9c-0.5,0.8-0.9,1.5-1.4,2
			c-0.7,0.8-1.4,1.2-2.1,1.2h-0.2c-0.4-0.1-0.8-0.3-1.1-0.8c-0.1-0.2-0.2-0.4-0.4-0.6c-0.1-0.2-0.2-0.5-0.3-0.8
			c-0.2-0.5-0.3-1.1-0.5-1.8c-0.1-0.6-0.3-1.3-0.4-2l-0.1-0.6c-0.1,0.2-0.2,0.5-0.3,0.8c-0.1,0.3-0.2,0.7-0.3,1.2
			c-0.2,0.7-0.3,1.4-0.4,2.2c-0.1,0.7-0.2,1.4-0.2,2c0,0.1,0,0.2-0.1,0.3c-0.1,0.1-0.2,0.1-0.3,0.1c-0.3,0-0.4-0.1-0.4-0.4
			c0-0.7-0.1-1.4-0.1-2c0-0.6-0.1-1.2-0.2-1.8c-0.1-0.7-0.2-1.3-0.3-1.9c0-0.1,0-0.2,0.1-0.3s0.2-0.2,0.3-0.2c0.1,0,0.2,0,0.3,0.1
			c0.1,0.1,0.2,0.2,0.2,0.3c0.1,0.3,0.1,0.6,0.2,1c0.1,0.4,0.1,0.7,0.1,1c0-0.1,0.1-0.3,0.1-0.4s0.1-0.3,0.1-0.4
			c0.1-0.4,0.2-0.7,0.3-1c0.1-0.3,0.2-0.6,0.3-0.8c0.2-0.3,0.3-0.6,0.4-0.7c0.1-0.2,0.3-0.2,0.5-0.2c0.1,0,0.1,0,0.2,0
			c0.1,0,0.2,0.1,0.3,0.3c0.1,0.2,0.2,0.4,0.2,0.7c0,0.3,0.1,0.5,0.1,0.7c0.1,0.6,0.2,1.3,0.4,1.9c0.1,0.6,0.3,1.2,0.5,1.7
			c0.3,1,0.7,1.6,1.1,1.6c0.4,0.1,0.9-0.3,1.5-1c0.4-0.4,0.8-1.1,1.3-1.9c0.5-0.8,1-1.7,1.5-2.8c0.1-0.1,0.2-0.2,0.3-0.2
			C66.9,8.3,67,8.3,67.1,8.4z"/>
	</g>
	<polygon class="st0" points="67.3,15.1 0.7,15.1 0.7,14.9 0,14.9 0,15.5 0.7,15.5 0.7,15.3 67.3,15.3 	"/>
</g>
</svg>
