<?xml version="1.0" encoding="utf-8"?>
<!-- Generator: Adobe Illustrator 22.0.1, SVG Export Plug-In . SVG Version: 6.00 Build 0)  -->
<svg version="1.1" id="Layer_1" xmlns="http://www.w3.org/2000/svg" xmlns:xlink="http://www.w3.org/1999/xlink" x="0px" y="0px"
	 viewBox="0 0 70.4 78.3" style="enable-background:new 0 0 70.4 78.3;" xml:space="preserve">
<style type="text/css">
	.st0{fill:#FFFFFF;stroke:#001D40;stroke-miterlimit:10;}
	.st1{fill:#001D40;}
	.st2{fill:#2296BC;stroke:#001D40;stroke-miterlimit:10;}
</style>
<g>
	<path class="st0" d="M0.5,79.2l2.1-14.2c0.8-5.1,4.8-9.2,9.9-10.4l13.1-3v-7.2h16.7v7.2l14.9,3.2c5.1,1.1,9.1,5,10.1,10l2.6,14.3"
		/>
	<path class="st0" d="M50,28.9c0,11-11.9,20.4-16.4,19.9c-9-1.1-16.4-8.9-16.4-19.9S24.6,9,33.6,9S50,17.9,50,28.9z"/>
	<path class="st1" d="M47.6,52.3l10.9,2.9c1.1,0.4,3.4,1.2,5.4,3.4c2.3,2.4,3.1,5.1,3.3,6.3c0.6,2.9,1.1,5.7,1.7,8.6
		c-1.6,0.2-3.8,0.6-6.3,1.9c-1.9,0.9-3.3,3-4.3,3.9c-15.2,0-30.4,0-45.6,0C11.5,78.3,9.6,76,7,75c-2.3-0.9-4.3-1.2-5.8-1.3
		c0.5-2.9,0.9-5.7,1.4-8.6c0.2-1.2,0.8-3.8,2.9-6.2c2.6-3.1,5.9-3.9,7-4.2c3.1-0.8,6.1-1.6,9.2-2.4c0.2,0.5,2.8,7.6,9.7,9.2
		C37.7,63,44.7,59.2,47.6,52.3z"/>
	<path class="st2" d="M25.6,46.1l-2.2-2c-0.5-0.4-1-0.9-1.6-1.5c-0.7-0.9-1.3-1.7-1.6-2.4c-0.3-1.9-0.7-3.8-1-5.8
		c-0.5-3.2-1.1-7.2-1.3-10c2.3-1.4,2.1-2.7,5-6.1l5.9-8.1c0.3,0.8,3.1,1.7,4.2,2c1.7,0.6,6.6,2.6,10.3,5.2c1.3,0.9,3,2.5,4.4,5.4
		c0,3.7,0.5,13,0.5,13c-0.9,1.6-1.7,3.1-2.6,4.7c-0.4,0.7-1,1.4-1.8,2.2c-0.6,0.6-1.2,1.4-1.7,1.8c0,2.4,0,4.6,0,7L52.8,54l5.7,1.3
		c-0.2-1.4-1.4-5.5-2-8.2c-0.7-2.8-1.2-5.5-1.9-8.3c-1.3-5.7,0.1-13.1-1.9-21.1c-0.9-3.7-2-7.9-5.6-11.5c-6-6-14.3-5.7-15.9-5.7
		c-1.7,0-8.4,0.2-13.7,4.9c-5.1,4.6-6.3,11-7,17.2C8.7,40,10.8,57.3,13.2,69.8l12.5-4.7V46.1z"/>
</g>
</svg>
