<?xml version="1.0" encoding="utf-8"?>
<!-- Generator: Adobe Illustrator 22.0.1, SVG Export Plug-In . SVG Version: 6.00 Build 0)  -->
<svg version="1.1" id="Layer_1" xmlns="http://www.w3.org/2000/svg" xmlns:xlink="http://www.w3.org/1999/xlink" x="0px" y="0px"
	 viewBox="0 0 91.5 70.9" style="enable-background:new 0 0 91.5 70.9;" xml:space="preserve">
<style type="text/css">
	.st0{clip-path:url(#SVGID_2_);}
	.st1{fill:none;stroke:#000000;stroke-miterlimit:10;}
	.st2{fill:#2296BC;stroke:#000000;stroke-miterlimit:10;}
	.st3{fill:#001D40;stroke:#000000;stroke-miterlimit:10;}
</style>
<g>
	<defs>
		<rect id="SVGID_1_" width="91.5" height="70.9"/>
	</defs>
	<clipPath id="SVGID_2_">
		<use xlink:href="#SVGID_1_"  style="overflow:visible;"/>
	</clipPath>
	<g class="st0">
		<g>
			<path class="st1" d="M12.7,56.1h19.9l8.5-26.4c-2.7-1.9-6.2-5.4-9.7-11c-3.8-6.1-5-11.9-5.5-15.2h-2.6h-1.4h-2.6
				c-0.5,3.3-1.7,9.1-5.5,15.2c-3.5,5.6-7,9.1-9.7,11L12.7,56.1z"/>
			<line class="st2" x1="22.6" y1="29.7" x2="22.6" y2="3.6"/>
			<circle class="st3" cx="22.6" cy="29.3" r="3.3"/>
			<polyline class="st1" points="6.4,71.9 12.7,59 32.6,59 38.8,71.9 			"/>
		</g>
		<g>
			<path class="st2" d="M64,13.7l5.2-10.1l5.2,10.1c-0.9,0.5-2.7,1.3-5.3,1.3C66.7,15.1,64.9,14.2,64,13.7z"/>
			<polyline class="st1" points="50.8,70.9 50.8,39.5 69.2,3.6 87.6,39.5 87.6,70.9 			"/>
			<line class="st1" x1="75.4" y1="39.5" x2="75.4" y2="70.9"/>
			<line class="st1" x1="63.1" y1="39.4" x2="63.1" y2="70.8"/>
			<path class="st1" d="M50.8,39.5c0.7,0.5,2.8,4,5.9,4.1c3.4,0.1,5.7-3.6,6.4-4.1c0.9,0.6,3,4.1,6,4.1c3.1,0,6.2-5.1,6.2-5.1
				s3.3,5.2,6.5,5.1c2.8-0.1,4.8-3.5,5.8-4.1"/>
			<path class="st1" d="M56.7,43.6c3.4,0.1,6.4-5.1,6.4-5.1s3,5,6,5.1"/>
		</g>
	</g>
</g>
</svg>
