<?xml version="1.0" encoding="utf-8"?>
<!-- Generator: Adobe Illustrator 22.0.1, SVG Export Plug-In . SVG Version: 6.00 Build 0)  -->
<svg version="1.1" id="Layer_1" xmlns="http://www.w3.org/2000/svg" xmlns:xlink="http://www.w3.org/1999/xlink" x="0px" y="0px"
	 viewBox="0 0 1536 1071.7" style="enable-background:new 0 0 1536 1071.7;" xml:space="preserve">
<style type="text/css">
	.st0{fill:#2296BC;}
</style>
<g id="Layer_x0020_1">
	<g id="_333160488">
		<g>
			<path id="_333160872" class="st0" d="M1391,1071.7h43.8c55.7,0,101.2-45.5,101.2-101.2V101.2C1536,45.5,1490.5,0,1434.8,0H1391
				V1071.7L1391,1071.7z"/>
			<path id="_333160368" class="st0" d="M772.3,677.1l-1.2,0.8l-3.1-2.2l-3.1,2.2l-1.2-0.8C507.6,496.7,256.4,303.7,0,115L68.3,7.9
				L143,1.8l2-1.8l620,462.9l3-2.2l3,2.2L1391,0l2,1.8l74.6,6.1L1536,115C1279.6,303.7,1028.4,496.7,772.3,677.1L772.3,677.1z"/>
			<path id="_333160728" class="st0" d="M145,1071.7h-43.8C45.5,1071.7,0,1026.2,0,970.5V101.2C0,45.5,45.5,0,101.2,0H145V1071.7
				L145,1071.7z"/>
		</g>
		<polygon id="_333160440" class="st0" points="110.2,1021.1 1425.8,1021.1 1425.8,1071.7 110.2,1071.7 		"/>
		<polygon id="_333160752" class="st0" points="110.2,0 1425.8,0 1425.8,50.6 110.2,50.6 		"/>
	</g>
</g>
</svg>
