<?xml version="1.0" encoding="utf-8"?>
<!-- Generator: Adobe Illustrator 22.0.1, SVG Export Plug-In . SVG Version: 6.00 Build 0)  -->
<svg version="1.1" id="Layer_1" xmlns="http://www.w3.org/2000/svg" xmlns:xlink="http://www.w3.org/1999/xlink" x="0px" y="0px"
	 viewBox="0 0 173.1 26.7" style="enable-background:new 0 0 173.1 26.7;" xml:space="preserve">
<g>
	<path d="M107.1,8.6c-0.1,1.8-0.4,4.4-1.4,7.3c-1.2,3.5-2.3,6.7-5.2,8c-1.6,0.7-3.8,0.8-5.8-0.3c-3-1.8-3.2-5.3-3.2-5.6
		c-0.9,0.5-1.8,2.5-2.6,3.4c-1.1,1.2-1.8,2.1-3.3,2.9c-3.8,2-5.7-1.2-6.1-4.8c-1.5,2.7-2.9,5.9-6.4,6.6c-0.4,0.1-1.7,0.1-2.7-0.4
		c-1.9-0.9-2.8-2.8-2.5-6.1c-1.9,3.5-4.8,2.7-7.2,2.4c-1-0.1-1.8-0.7-1.9-0.7c-1.3-0.9-1.9-2.5-2.5-4.2c-1.2,2.5-3.5,8.9-7.6,7
		c-3.9-1.8-1.5-8.5-0.8-11.4c-0.1,0-0.1-0.1-0.2-0.1c-2.1,2.6-4.5,10.3-8.8,9.4c-4.6-0.9-5-10.1-5.3-13.5c-2.3,1.5-3.4,4.9-4.3,7.4
		c-0.8,2.2-1.3,7.4-3.3,8.6c-3,1.9-2.4-3.5-2.6-5.4c-0.2-2.3,0.1-7.1-1.6-8.8c-3,0-4.9,5-6,7.1c-1.2,2.3-1.8,7-4.2,8
		c-1.1-3.5-2.2-7-2.8-10.7c-1.8,0.6-6.3,2.8-8,1.6C-1.1,15,0.7,15,2,14.9c2.3-0.2,5.3-0.1,6.4-2.4c1.1-2.2,0-5.9,0.6-8.4
		c0.4-1.5,1.5-4.2,3.5-3.7c2.1,0.6,1.8,4.7,1.6,6.2c-0.2,1.2-0.5,2.4-1,3.5c-0.5,1-1.8,2-2.1,3c-0.6,1.6,0.4,6.3,1.4,7.6
		c2.7-2.8,4.4-11,9-11.8c4.7-0.8,3.9,10,4.3,12.7c0.1,0,0.1,0,0.2,0c2.6-3.8,2.3-9.4,5.6-12.9c4.3-4.6,4.2,2.4,5,5.4
		c0.4,1.5,1.1,4.5,2.5,5.5c2,1.4,2.8-0.6,4-2.2C45.4,14,47.9,8,52,6.5c2.2-0.8,3.2,0.1,5,1.2c1.9,1.2,1.9,0.8,1.9,3.3
		c-0.1,2.3-0.8,7.2,1.6,8.7c0.8,0.5,1.7,0.5,2,0.4c3.1-0.4,3.3-2.3,8-8c1.7-2,3.7-4.3,5.9-4c1.5,0.2,2.6,1.5,3.2,2.5
		c0,0.2,0.1,0.3,0.2,0.3c0.1,0,0.2-0.1,0.2-0.3c0.2-1.4,0-8.4,2-8.6c2.1-0.2,0.7,6.7,0.5,7.9c-0.4,2.7-2.5,17,3.6,12.5
		c2.2-1.6,4.2-5.1,5-7.7c0.4-1.4-0.1-5.7,1.1-6.3c2.5-1.2,1.5,5.3,1.5,6.1c0.2,2.4,0.7,6.8,3.1,7.8c5.5,2.3,7.6-8.8,8.4-11.9
		c0.3-1.4,0.2-4.7,2.4-4.1c1.9,0.6,3.2,5.9,4.2,7.4c1.6,2.7,3.7,1.7,6.4,0.8c1.3-0.5,3.1-1.1,4.5-1.5c1.3-0.4,2.7-0.8,3.9-1.4
		c1.4-0.8,2.2-3.4,4.6-2.2c2.4,1.1,0.9,4.8,1.2,6.8c2.6,1,5,0.3,7.4-0.7c0-2.6-0.7-6.9,1.4-9c1.2-1.3,4-1.8,5-0.1
		c1.1,2-1.4,5.1-2.3,6.7c-1.7,3.1-1,4.7-0.2,8.1c0.1,0,0.2,0,0.4,0.1c2.1-3.4,3.5-6.2,7.3-8c3.7-1.8,6.4-2.1,7.8,2
		c1.1,3.2,2.3,6.8,6.4,6.5c4.6-0.4,4.5-5,7.3-7.4c0.1,0.1,0.2,0.1,0.4,0.2c-1.2,5.1-4.1,9.9-10.1,8.9c-2.4-0.4-3.8-2.1-4.7-4.2
		c-0.9-1.9-0.8-5.2-3.1-5.6c-1.7-0.3-5,1.5-6.2,2.6c-1.7,1.7-2.9,4.8-3.4,7.1c-0.4,1.7-0.3,4.6-2.5,2.8c-1.6-1.3-2.5-7.2-3-9.1
		c-2.8,0.9-5.4,2.1-8.3,1c-1.7,3.3-3.6,9.4-8.5,8.5c-6.1-1.2-3-9.2-1.1-12.4c-2.1,0.3-3.9,1.1-5.8,1.9c-2.8,1.1-3.5,1.2-3.6,4.1
		c-0.1,3.7-1.6,6.5-6.2,5.4c-1.3-0.3-2-0.8-2.3-1.5c-0.8-1.7,1-4.8,3.4-5.9c1-0.4,2.1-0.6,2.6-1.6c0.2-0.4,0.3-0.8,0.3-1.4
		c-0.2-1-0.6-2.3-1.4-3.8C108.5,10.2,107.7,9.2,107.1,8.6z M73.9,24.4c0.8-0.6,3.6-2.7,4.3-6.3c0.6-3.2-0.5-7.4-2.4-7.8
		c-2-0.4-4.3,3.7-5.3,6.2c-0.2,0.5-2.1,6,0.2,7.6C71.1,24.4,72,24.9,73.9,24.4z M121.7,20.8c0.1,1.9,0.9,3.5,2.1,4
		c0.7,0.3,1.3,0.1,1.6,0.1c2.1-0.5,4.4-5.1,4.3-7c-0.1-2-2-4.1-3.7-4.1C124.1,13.7,121.8,16.6,121.7,20.8z M48.9,19.1
		c0.1,1,0.3,2.9,1.4,3.2c0.5,0.2,1.2,0,1.9-0.7c3.5-3.1,3.8-8.3,3.8-9.4c0-1.8-0.3-2.7-0.9-3.2c-0.6-0.6-1.6-0.8-2.5-0.7
		C49.7,8.9,48.5,15,48.9,19.1z M111.2,19.9c0.1-0.8,0.1-1.5-0.2-1.7c-1-0.6-5.9,2.7-5.2,4.7c0.3,0.9,2.7,1.6,3.8,1.3
		C110.8,23.8,111.2,20.1,111.2,19.9z M12.1,2c-1.5,2-2.4,7.8-1.3,9.1C12.7,8.8,13.4,4.1,12.1,2z M141.7,13.1c0.1,0,0.2,0.1,0.3,0.1
		c0.9-0.9,4-5.8,1.6-6.2C141.3,6.7,141.7,11.9,141.7,13.1z M130.4,14.4c0.9-1.6,0.9-3,0.3-3.3c-0.5-0.3-1.3,0.1-1.6,0.2
		C129,12.5,129.7,13.3,130.4,14.4z"/>
	<path d="M96.8,1.2c-0.2,0.5-0.6,0.8-1,0.9c-0.4,0-0.7-0.1-0.8-0.2c-0.2-0.1-0.4-0.2-0.5-0.5c-0.1-0.3,0.1-0.6,0.2-0.7
		C94.9,0.5,95.4-0.2,96,0C96.5,0.2,96.9,0.6,96.8,1.2z"/>
</g>
</svg>
